PathFileType	4	(X/Y/Z)	C:\Users\WrightLab\Desktop\Jo\P2_Trial34.trc
DataRate	CameraRate	NumFrames	NumMarkers	Units	OrigDataRate	OrigDataStartFrame	OrigNumFrames
100.00	100.00	       64	19	mm	100.00	83	       663
Frame#	Time	Headset_Front			Headset_Back			Headset_Left			Headset_Right			Left_Shoulder			Right_Shoulder			Sternum			C7			Left Elbow			Right Elbow			Left Wrist			Right Wrist			Left ASIS			Right ASIS			S2			Left Knee			Right Knee			Left Ankle			Right Ankle			
		X1	Y1	Z1	X2	Y2	Z2	X3	Y3	Z3	X4	Y4	Z4	X5	Y5	Z5	X6	Y6	Z6	X7	Y7	Z7	X8	Y8	Z8	X9	Y9	Z9	X10	Y10	Z10	X11	Y11	Z11	X12	Y12	Z12	X13	Y13	Z13	X14	Y14	Z14	X15	Y15	Z15	X16	Y16	Z16	X17	Y17	Z17	X18	Y18	Z18	X19	Y19	Z19	

83	0.820																																		-381.96533	1034.92236	-1599.84351										11.03010	420.58688	-1642.47815										
84	0.830																																		-383.77905	1032.39148	-1603.32959										8.92007	419.64560	-1639.50146										
85	0.840																																		-387.73343	1034.15857	-1598.33655										6.87988	419.55685	-1636.99670										
86	0.850																																		-389.79211	1033.26123	-1600.66858										4.45432	420.74490	-1635.77820										
87	0.860																																		-393.49750	1034.20593	-1592.92065										1.62641	419.55203	-1631.04224										
88	0.870																																		-395.63574	1033.19482	-1595.67310										0.26309	420.19989	-1629.90210										
89	0.880																																		-399.68109	1034.60645	-1591.19849										-3.05894	418.55511	-1625.67273										
90	0.890																																		-402.13437	1031.71521	-1593.28845										-5.49494	418.64655	-1623.32141										
91	0.900																																		-406.54590	1032.03809	-1589.20435										-7.70484	418.64087	-1621.12231										
92	0.910																																		-409.20435	1031.70410	-1588.48254										-11.55573	418.54520	-1617.24561										
93	0.920																																		-413.17270	1032.50085	-1584.83069										-13.95299	417.75888	-1614.63745										
94	0.930																																		-417.60129	1034.18799	-1577.50073										-17.03962	417.91113	-1611.44470										
95	0.940																																		-420.68225	1030.03442	-1582.83203										-19.75441	417.29044	-1608.15381										
96	0.950																												-593.70905	1149.47290	-1623.65735				-425.35999	1030.76636	-1575.26917										-23.60444	416.53568	-1604.02185										
97	0.960																												-598.10754	1149.63538	-1620.04858				-429.73862	1031.05103	-1573.87378										-27.40003	415.66312	-1600.54834										
98	0.970																												-601.43787	1149.29993	-1623.60742				-432.71497	1030.12463	-1574.82312										-29.35636	415.59695	-1598.62134										
99	0.980																												-605.66687	1148.41235	-1619.08203				-437.78281	1029.95374	-1569.63928										-33.22626	413.88882	-1593.28601										
100	0.990																												-610.92969	1147.73193	-1615.02222				-443.36487	1028.19788	-1565.85645										-36.90082	413.55356	-1589.71936										
101	1.000																												-615.11987	1147.37256	-1614.84607				-447.05957	1028.97046	-1564.58398										-40.06799	413.64386	-1586.38562										
102	1.010																												-619.28900	1146.83667	-1614.52356				-450.81348	1027.11340	-1565.68018										-44.15095	412.34198	-1581.71582										
103	1.020																												-624.51605	1146.09375	-1610.30554				-457.25134	1026.68494	-1558.17163										-46.82528	412.00323	-1578.30676										
104	1.030																												-629.10828	1144.84790	-1607.53320				-462.35529	1027.45398	-1554.62524										-50.71605	411.54413	-1574.04639										
105	1.040																												-633.98309	1145.45911	-1606.27246				-467.58633	1027.43164	-1551.62952										-54.60646	410.24908	-1569.20154										
106	1.050																												-638.22852	1144.87427	-1606.30469				-472.82147	1024.80542	-1546.04089										-59.22015	410.01089	-1564.66541										
107	1.060																												-643.13782	1144.62061	-1600.72229				-476.82846	1024.57300	-1547.58838										-63.87589	408.64166	-1557.85303										
108	1.070																												-648.88287	1145.03015	-1596.02063				-481.94281	1024.84387	-1545.29846										-66.89515	408.59799	-1555.04871										
109	1.080																												-653.42084	1144.48096	-1594.03772				-487.10504	1025.03223	-1541.86768										-71.60893	407.53107	-1549.46179										
110	1.090																												-657.74561	1145.66479	-1590.32776				-492.25424	1025.59436	-1533.00635										-76.50564	406.90390	-1544.33936										
111	1.100																												-662.02148	1145.45068	-1590.59290				-497.34027	1024.12598	-1533.83691										-82.11838	405.01849	-1537.55029										
112	1.110																												-666.71198	1146.70959	-1585.26294				-501.73782	1025.24951	-1530.38550										-86.53409	405.43079	-1532.53772										
113	1.120																												-671.91016	1147.90686	-1578.27966				-505.67850	1024.96716	-1529.18323										-92.37749	404.02728	-1527.14490										
114	1.130																												-676.54944	1150.43262	-1573.89978				-510.78470	1024.86462	-1524.56787										-97.42026	402.79013	-1521.61060										
115	1.140																												-679.04089	1152.21362	-1575.04700				-515.78278	1025.10693	-1519.49048										-103.51547	402.07202	-1515.04126										
116	1.150																												-683.44568	1153.72949	-1569.78235				-520.01123	1024.36707	-1519.70654										-109.73351	401.47617	-1509.78564										
117	1.160																												-687.22772	1155.59741	-1564.93054				-524.05695	1025.91956	-1514.61646										-117.03237	400.88495	-1501.84705										
118	1.170																												-692.15320	1158.42834	-1558.04126				-529.55634	1025.64880	-1514.31958										-123.97926	401.60965	-1495.36072										
119	1.180																												-694.48236	1160.17078	-1557.23865				-534.07971	1027.02771	-1508.04663										-132.76422	400.89801	-1485.88916										
120	1.190																												-698.33350	1163.55627	-1550.90955				-539.80896	1027.68530	-1503.45459										-143.56494	402.25909	-1476.41321										
121	1.200																												-702.76630	1166.30554	-1546.20142				-544.32269	1026.84387	-1500.60303										-154.89853	401.81689	-1465.82227										
122	1.210																												-707.38806	1169.73035	-1539.01318				-548.96887	1027.55859	-1498.50623										-165.32539	400.95715	-1456.94226										
123	1.220																												-709.38245	1170.53772	-1544.54578				-553.60767	1028.52795	-1496.43335										-177.03113	400.75528	-1446.44495										
124	1.230																												-713.49622	1172.18018	-1538.39307				-558.15045	1029.03223	-1496.10840										-188.34103	401.83069	-1437.84888										
125	1.240																												-717.80219	1174.65613	-1533.13135				-563.63550	1029.28540	-1490.01001										-200.31955	400.17645	-1426.09753										
126	1.250																												-719.81812	1173.19495	-1537.61707				-568.44476	1028.19958	-1483.09497										-207.90703	404.47375	-1416.75110										
127	1.260																												-724.52667	1174.10608	-1527.99243				-574.35938	1028.05200	-1479.26758										-215.36960	408.02795	-1406.64636										
128	1.270																												-727.62231	1173.24817	-1525.96704				-578.68097	1024.09937	-1476.22412										-221.26996	411.07938	-1396.76135										
129	1.280																												-730.17395	1174.06421	-1522.93909				-584.97345	1020.09686	-1470.42566										-229.39894	413.57755	-1383.89087										
130	1.290																												-734.27551	1173.98242	-1520.36719				-591.01465	1016.14758	-1463.43958										-236.06128	416.29782	-1372.40662										
131	1.300																												-736.80054	1171.14441	-1515.83484				-597.86597	1011.46930	-1460.26953										-243.31197	417.43399	-1357.31995										
132	1.310																												-739.10022	1170.43677	-1514.54199				-603.55560	1007.68365	-1451.67761										-249.92511	419.97623	-1344.18103										
133	1.320																												-741.39404	1169.25671	-1508.13965				-611.32867	1003.94843	-1441.02148										-257.08813	422.09683	-1329.39575										
134	1.330																												-743.49176	1166.18188	-1506.64368				-617.39172	999.43243	-1434.17200										-263.48856	424.20340	-1315.97864										
135	1.340																												-746.41400	1165.40466	-1496.19739				-623.95081	994.56000	-1429.63965										-269.94278	426.25775	-1301.35852										
136	1.350																												-747.89929	1161.62927	-1496.79089				-629.82111	990.04529	-1416.67529										-277.78540	427.63354	-1286.74780										
137	1.360																												-750.43658	1159.62781	-1487.43713				-637.16870	982.91864	-1413.50842										-283.74408	429.65393	-1273.10657										
138	1.370																												-752.56403	1156.53516	-1486.08789				-642.22522	979.73267	-1399.81714										-291.94113	431.94727	-1257.49121										
139	1.380																												-753.96967	1154.17053	-1481.73865				-649.41724	974.00647	-1389.37256										-297.86047	434.96246	-1246.13245										
140	1.390																												-757.43268	1151.18140	-1472.26563				-655.66846	968.34369	-1380.35535										-306.66028	437.29538	-1229.64026										
141	1.400																												-758.86401	1146.81323	-1471.96802				-664.79596	961.75018	-1376.90784										-313.45657	440.90872	-1215.60767										
142	1.410																												-761.74524	1146.45227	-1461.12036				-672.18182	956.43250	-1365.95276										-322.04413	444.20459	-1202.87708										
143	1.420																												-764.42004	1142.14441	-1457.03003				-679.21069	949.36023	-1361.23096				-565.91937	977.85699	-1340.11218				-329.45636	448.59927	-1189.71484										
144	1.430																												-767.65961	1141.12476	-1438.99915				-688.58008	943.41284	-1349.13831				-567.49030	973.91345	-1342.52722				-338.10922	451.92957	-1176.41479										
145	1.440																												-769.65894	1133.65320	-1447.48413				-696.99713	937.48993	-1340.48999				-570.96783	975.31348	-1330.87073				-346.77185	456.10291	-1163.83643										
146	1.450																												-772.44855	1133.49536	-1427.39465				-705.22931	931.48419	-1324.10938				-573.06116	972.81189	-1328.10376				-354.54803	458.88000	-1152.31873										
